#N canvas 485 56 881 680 10;
#X declare -lib mrpeach;
#N canvas 0 22 450 300 receiver 0;
#X obj -19 239 cnv 15 200 40 empty empty empty 20 12 0 14 -4034 -66577
0;
#X obj -76 114 unpackOSC;
#X floatatom 8 134 10 0 0 1 millisecond_delay - -;
#X obj -76 141 pipelist;
#X obj 12 249 routeOSC /value;
#X obj -37 300 print value;
#X obj 48 339 outlet;
#X obj 67 43 import mrpeach;
#X obj 107 90;
#X obj -76 84 udpreceive 12001;
#X connect 1 0 3 0;
#X connect 1 1 2 0;
#X connect 1 1 3 1;
#X connect 3 0 4 0;
#X connect 4 0 5 0;
#X connect 4 0 6 0;
#X connect 9 0 1 0;
#X restore 73 55 pd receiver;
#X obj 89 199 vsl 15 128 0 1023 0 0 empty empty empty 0 -9 0 10 -262144
-1 -1 695 1;
#X obj 119 159 mavg 100;
#X obj 117 199 vsl 15 128 0 1000 0 0 empty empty empty 0 -9 0 10 -262144
-1 -1 655 1;
#X obj 230 240 bng 100 500 50 0 empty empty empty 17 7 0 10 -258113
-1 -1;
#X obj 171 198 moses 200;
#X connect 0 0 1 0;
#X connect 0 0 2 0;
#X connect 0 0 5 0;
#X connect 2 0 3 0;
#X connect 5 1 4 0;
