#N canvas 635 119 1440 852 10;
#X declare -lib mrpeach;
#X obj -29 229 cnv 15 200 40 empty empty empty 20 12 0 14 -4034 -66577
0;
#X obj -86 104 unpackOSC;
#X floatatom -2 124 10 0 0 1 millisecond_delay - -;
#X obj 2 239 routeOSC /value;
#X obj -47 290 print value;
#X obj 38 329 outlet;
#X obj -86 74 udpreceive 12001;
#X obj 93 79 import mrpeach;
#X obj -86 131 pipelist;
#X obj -27 364 s PlantVibro;
#X connect 1 0 8 0;
#X connect 1 1 2 0;
#X connect 1 1 8 1;
#X connect 3 0 5 0;
#X connect 3 0 9 0;
#X connect 6 0 1 0;
#X connect 8 0 3 0;
